<?xml version="1.0" encoding="utf-8"?>
<!-- Generator: Adobe Illustrator 24.1.0, SVG Export Plug-In . SVG Version: 6.00 Build 0)  -->
<svg version="1.1" id="Layer_1" xmlns="http://www.w3.org/2000/svg" xmlns:xlink="http://www.w3.org/1999/xlink" x="0px" y="0px"
	 viewBox="0 0 500 200" style="enable-background:new 0 0 500 200;" xml:space="preserve">
<style type="text/css">
	.st0{fill:none;}
	.st1{fill:#87C4B6;}
	.st2{fill:#0A4C61;}
</style>
<g>
	<path class="st0" d="M308.7,81.2c-0.2-1.9-0.8-3.8-1.6-5.5c-2.2-4.8-7.1-7.9-12.4-7.6c-3.1-0.1-6.1,0.7-8.7,2.2
		c-2.4,1.5-4.3,3.6-5.5,6.1c-0.7,1.5-1.2,3.1-1.5,4.8L308.7,81.2z"/>
	<path class="st0" d="M357,70.6c-5-2.9-11.2-2.9-16.2,0c-2.4,1.4-4.4,3.5-5.7,5.9c-1.4,2.6-2.2,5.6-2.1,8.6c0,3,0.7,5.9,2.1,8.6
		c1.3,2.5,3.3,4.6,5.7,6c5,2.9,11.2,2.9,16.2,0c2.4-1.5,4.3-3.5,5.6-6c1.4-2.6,2.1-5.6,2.1-8.6c0.1-3-0.7-5.9-2.1-8.6
		C361.3,74.1,359.4,72.1,357,70.6z"/>
	<path class="st0" d="M421,76.5c-1.3-2.5-3.2-4.5-5.6-5.9c-5.1-2.9-11.3-2.9-16.4,0c-2.4,1.4-4.3,3.5-5.6,5.9
		c-1.4,2.7-2.1,5.7-2.1,8.7c-0.1,3,0.6,6,2.1,8.7c1.3,2.4,3.3,4.5,5.6,5.9c5.1,2.9,11.3,2.9,16.4,0c2.4-1.4,4.3-3.5,5.6-5.9
		c1.4-2.7,2.1-5.7,2-8.7C423,82.2,422.4,79.2,421,76.5z"/>
	<path class="st0" d="M150.5,25.2c-0.1-0.9-0.4-1.8-0.8-2.7c-1.1-2.4-3.5-3.9-6.1-3.7c-1.5,0-3,0.3-4.3,1.1c-1.2,0.7-2.1,1.8-2.7,3
		c-0.4,0.7-0.6,1.5-0.7,2.3L150.5,25.2z"/>
	<path class="st0" d="M478.7,81.2c-0.2-1.9-0.8-3.8-1.6-5.5c-2.2-4.8-7.1-7.9-12.4-7.6c-3.1-0.1-6.1,0.7-8.7,2.2
		c-2.4,1.5-4.3,3.6-5.5,6.1c-0.7,1.5-1.2,3.1-1.5,4.8L478.7,81.2z"/>
	<path class="st0" d="M155.8,70.6c-5.1-2.9-11.3-2.9-16.4,0c-2.4,1.4-4.3,3.5-5.6,5.9c-1.4,2.7-2.1,5.7-2.1,8.7
		c-0.1,3,0.6,6,2.1,8.7c1.3,2.4,3.3,4.5,5.6,5.9c5.1,2.9,11.3,2.9,16.4,0c2.4-1.4,4.3-3.5,5.6-5.9c1.4-2.7,2.1-5.7,2-8.7
		c0.1-3-0.6-6-2-8.7C160.2,74.1,158.2,72,155.8,70.6z"/>
	<path class="st1" d="M55.8,39.9c-0.6,0-1.3,0.1-1.9,0.4c-0.7,0.4-1.4,0.9-2,1.5L22.4,71.3V44.5c0-1.2-0.5-2.4-1.3-3.3
		c-0.9-0.9-2.1-1.4-3.3-1.3c-1.2,0-2.4,0.5-3.3,1.3c-0.9,0.9-1.4,2.1-1.4,3.3V105c0,1.2,0.5,2.4,1.4,3.3c0.9,0.9,2,1.4,3.3,1.3
		c1.2,0,2.4-0.5,3.3-1.3c0.9-0.9,1.4-2.1,1.3-3.3V83.5l6.4-6.4l22.6,30.6c0.8,1.3,2.3,2,3.8,2c1.1,0,2.1-0.4,2.9-1.2
		c0.7-0.8,1.2-1.9,1.2-2.9c0.1-1.2-0.2-2.3-0.9-3.3L35.2,70.6L58,47.7c0.9-0.9,1.5-2.1,1.7-3.3c0.2-1.1-0.1-2.3-0.7-3.2
		C58.2,40.3,57,39.8,55.8,39.9z"/>
	<path class="st1" d="M104.4,63c-3.4-1.8-7.2-2.7-11-2.6c-3.7-0.1-7.4,0.8-10.6,2.6c-1.7,0.9-3.2,2.1-4.6,3.4v-1
		c0-2.6-2.2-4.6-4.7-4.6c-1.1,0-2.2,0.5-3.1,1.2c-0.9,0.9-1.3,2.1-1.3,3.3v39.8c0,2.6,2.2,4.6,4.7,4.6c1.2,0,2.3-0.5,3.1-1.3
		c0.8-0.9,1.3-2,1.2-3.3V80c0-2.1,0.6-4.1,1.8-5.8c1.2-1.7,2.9-3.1,4.8-4.1c2.1-1,4.4-1.6,6.8-1.5c2.5,0,5,0.5,7.3,1.6
		c2.1,1.1,3.9,2.7,5,4.8c1.3,2.6,2,5.4,1.9,8.3v22c0,2.5,2,4.6,4.5,4.6c2.5,0,4.6-2,4.6-4.5c0-0.1,0-0.1,0-0.2v-22
		c0.1-4.3-0.8-8.6-2.8-12.5C110.3,67.4,107.6,64.7,104.4,63z"/>
	<path class="st1" d="M160.3,63.6c-8-4.2-17.5-4.2-25.4,0c-3.6,2.1-6.7,5.1-8.7,8.7c-2.2,3.9-3.3,8.4-3.2,12.9
		c-0.1,4.5,1,8.9,3.2,12.8c2,3.7,5.1,6.7,8.7,8.7c8,4.2,17.5,4.2,25.5,0c3.6-2.1,6.6-5.1,8.7-8.7c2.1-3.9,3.2-8.3,3.1-12.8
		c0.1-4.5-1-9-3.2-12.9C167,68.7,164,65.7,160.3,63.6z M161.4,93.9c-1.3,2.4-3.2,4.5-5.6,5.9c-5.1,2.9-11.3,2.9-16.4,0
		c-2.4-1.4-4.3-3.5-5.6-5.9c-1.4-2.7-2.1-5.6-2.1-8.7c-0.1-3,0.6-6,2.1-8.7c1.3-2.5,3.2-4.5,5.6-5.9c5.1-2.9,11.3-2.9,16.4,0
		c2.4,1.4,4.3,3.5,5.6,5.9c1.4,2.7,2.1,5.7,2,8.7C163.5,88.3,162.8,91.2,161.4,93.9L161.4,93.9z"/>
	<path class="st1" d="M235,60.8c-2.3,0-3.8,1.4-4.6,4.1l-9.8,30.7l-8.1-31.4c-0.2-1-0.7-1.8-1.5-2.5c-1.7-1.3-4.1-1.3-5.8,0
		c-0.7,0.7-1.3,1.5-1.5,2.5L194.5,95l-9.6-30.1c-0.3-1.2-0.9-2.3-1.8-3.2c-0.8-0.6-1.8-1-2.8-0.9c-1.4-0.2-2.7,0.5-3.3,1.7
		c-0.5,1.5-0.5,3,0,4.5l13.2,39.6c0.3,0.9,0.9,1.6,1.7,2.1c0.8,0.6,1.7,0.9,2.6,0.8c1,0,1.9-0.3,2.7-0.8c0.8-0.5,1.3-1.2,1.6-2.1
		l9.2-32.4l8.8,32.4c0.3,0.9,0.8,1.6,1.6,2.1c0.8,0.6,1.7,0.8,2.7,0.8c1,0,1.9-0.3,2.7-0.8c0.7-0.5,1.3-1.2,1.5-2.1L238.3,67
		c0.7-1.4,0.7-3.1,0.1-4.5C237.7,61.3,236.3,60.6,235,60.8z"/>
	<path class="st1" d="M262.8,100.7h-2.2c-1.4,0-2.6-0.9-3.2-2.1c-0.9-1.7-1.3-3.6-1.3-5.4V44.3c0.1-2.5-1.9-4.5-4.4-4.6
		c-2.5-0.1-4.5,1.9-4.6,4.4c0,0.1,0,0.1,0,0.2v48.7c-0.1,2.9,0.5,5.8,1.7,8.5c1,2.3,2.7,4.4,4.7,5.8c2,1.4,4.5,2.2,7,2.1h0.2
		c1.6,0.1,3.1-0.4,4.4-1.3c1.1-0.7,1.7-1.9,1.7-3.2c0-1.2-0.4-2.3-1.1-3.2C265,101.1,263.9,100.7,262.8,100.7z"/>
	<path class="st1" d="M306.6,63.5c-3.6-2.1-7.8-3.2-12-3.1c-4.4-0.1-8.7,1-12.5,3.2c-3.6,2.1-6.5,5.1-8.5,8.7
		c-2.1,4-3.2,8.4-3.1,12.9c-0.1,4.5,1,8.9,3.3,12.8c2.1,3.7,5.3,6.7,9,8.7c6.7,3.6,14.6,4.1,21.8,1.7c2.7-0.9,5.3-2.2,7.5-3.9
		c0.9-0.6,1.5-1.7,1.4-2.8c-0.1-1.2-0.7-2.2-1.6-2.9c-0.8-0.6-1.7-1-2.7-0.9c-1.1,0-2.1,0.4-2.9,1c-1.4,1-3,1.8-4.7,2.4
		c-1.8,0.7-3.7,1-5.7,1c-3.1,0.1-6.3-0.7-9-2.2c-4.4-2.4-7.4-6.7-8.1-11.7h33.9c1.1,0,2.2-0.4,2.9-1.1c0.8-0.7,1.2-1.8,1.2-2.8
		c0.1-4.3-0.8-8.6-2.6-12.5C312.6,68.5,310,65.5,306.6,63.5z M286,70.3c2.6-1.5,5.7-2.3,8.7-2.2c5.3-0.2,10.2,2.8,12.4,7.6
		c0.8,1.7,1.4,3.6,1.6,5.5H279c0.3-1.7,0.8-3.3,1.5-4.8C281.7,73.9,283.6,71.8,286,70.3L286,70.3z"/>
	<path class="st1" d="M368.9,39.9c-1.2,0-2.4,0.4-3.3,1.3c-0.9,0.9-1.3,2.1-1.3,3.3v24.1c-4.2-5.2-10.6-8.2-17.2-8.1
		c-4.1-0.1-8.2,1.1-11.7,3.3c-3.5,2.2-6.3,5.2-8.2,8.8c-2,3.9-3.1,8.2-3,12.6c-0.1,4.4,1.1,8.8,3.3,12.7c2.1,3.7,5.2,6.8,8.8,8.9
		c11.7,6.9,26.8,3,33.7-8.7c0-0.1,0.1-0.1,0.1-0.2c2.2-3.9,3.3-8.2,3.3-12.7V44.4c0.1-2.4-1.7-4.4-4-4.6
		C369.2,39.9,369.1,39.9,368.9,39.9L368.9,39.9z M362.6,93.7c-1.3,2.5-3.2,4.6-5.6,6c-5,2.9-11.2,2.9-16.2,0c-2.4-1.5-4.4-3.5-5.7-6
		c-1.4-2.6-2.1-5.6-2.1-8.6c-0.1-3,0.7-5.9,2.1-8.6c1.3-2.4,3.3-4.5,5.7-5.9c5-2.9,11.2-2.9,16.2,0c2.4,1.4,4.3,3.5,5.6,5.9
		c1.4,2.6,2.1,5.6,2.1,8.6C364.7,88.1,364,91.1,362.6,93.7z"/>
	<path class="st1" d="M419.9,63.6c-8-4.2-17.5-4.2-25.4,0c-3.6,2.1-6.7,5.1-8.7,8.7c-2.2,3.9-3.3,8.4-3.2,12.9
		c-0.1,4.4,0.9,8.8,2.9,12.8c3.8,7.5,11.5,12.1,19.9,11.9c3.9,0.1,7.7-1,10.9-3.2c2.8-1.9,5.1-4.4,6.7-7.3v4.4
		c0.1,3.4-0.6,6.8-2.1,9.8c-1.3,2.5-3.3,4.6-5.8,6.1c-2.4,1.4-5.1,2.1-7.9,2.1c-2.9,0-5.7-0.5-8.3-1.7c-2.4-1.1-4.5-2.7-6.1-4.7
		c-0.7-0.9-1.7-1.6-2.8-1.8c-1.2-0.2-2.4,0-3.3,0.7c-0.9,0.6-1.5,1.5-1.7,2.6c-0.2,1.1,0.1,2.3,0.8,3.1c2.5,3.2,5.7,5.7,9.4,7.3
		c3.7,1.7,7.8,2.5,11.9,2.5c4.5,0.1,9-1.1,12.9-3.4c3.7-2.2,6.7-5.4,8.7-9.2c2.1-3.9,3.2-8.3,3.1-12.8V85.2c0.1-4.5-1-9-3.2-12.9
		C426.5,68.7,423.5,65.7,419.9,63.6z M415.4,99.8c-5.1,2.9-11.3,2.9-16.4,0c-2.4-1.4-4.3-3.5-5.6-5.9c-1.4-2.7-2.1-5.6-2.1-8.7
		c-0.1-3,0.6-6,2.1-8.7c1.3-2.5,3.2-4.5,5.6-5.9c5.1-2.9,11.3-2.9,16.4,0c2.4,1.4,4.3,3.5,5.6,5.9c1.4,2.7,2.1,5.7,2,8.7
		c0.1,3-0.6,6-2,8.7C419.7,96.3,417.8,98.4,415.4,99.8z"/>
	<path class="st1" d="M476.6,63.5c-3.6-2.1-7.8-3.2-12-3.1c-4.4-0.1-8.7,1-12.5,3.2c-3.6,2.1-6.5,5.1-8.5,8.7
		c-2.1,4-3.2,8.4-3.1,12.9c-0.1,4.5,1,8.9,3.3,12.8c2.1,3.7,5.3,6.7,9,8.7c6.7,3.6,14.6,4.1,21.8,1.7c2.7-0.9,5.3-2.2,7.5-3.9
		c0.9-0.6,1.5-1.7,1.4-2.8c-0.1-1.2-0.7-2.2-1.6-2.9c-0.8-0.6-1.7-1-2.7-0.9c-1.1,0-2.1,0.4-2.9,1c-1.4,1-3,1.8-4.7,2.4
		c-1.8,0.7-3.7,1-5.7,1c-3.1,0.1-6.3-0.7-9-2.2c-4.4-2.4-7.4-6.7-8.1-11.7h33.9c1.1,0,2.2-0.4,2.9-1.1c0.8-0.7,1.2-1.8,1.2-2.8
		c0.1-4.3-0.8-8.6-2.6-12.5C482.6,68.5,480,65.5,476.6,63.5z M456,70.3c2.6-1.5,5.7-2.3,8.7-2.2c5.3-0.2,10.2,2.8,12.4,7.6
		c0.8,1.7,1.4,3.6,1.6,5.5H449c0.3-1.7,0.8-3.3,1.5-4.8C451.7,73.9,453.6,71.8,456,70.3z"/>
	<path class="st2" d="M73,9.1h9.5v27.7c0,1.3,1,2.3,2.3,2.3c1.3,0,2.3-1,2.3-2.3l0,0V9.1h9.4c1.1,0,2.1-0.8,2.1-1.9
		c0-0.1,0-0.1,0-0.2c0-1.1-0.8-2.1-1.9-2.1c-0.1,0-0.1,0-0.2,0H73c-1.1,0-2.1,0.8-2.1,1.9c0,0.1,0,0.1,0,0.2c0,1.1,0.8,2.1,1.9,2.1
		C72.9,9.1,73,9.1,73,9.1z"/>
	<path class="st2" d="M125,38.5c0.4-0.4,0.7-1,0.6-1.6V26.1c0.1-2.1-0.4-4.2-1.4-6.1c-0.9-1.6-2.2-2.9-3.8-3.8
		c-1.7-0.9-3.5-1.3-5.4-1.3c-1.8,0-3.6,0.4-5.2,1.3c-0.8,0.4-1.6,1-2.2,1.7V7.1c0-0.6-0.2-1.2-0.6-1.6c-0.9-0.8-2.3-0.8-3.2,0
		c-0.4,0.4-0.7,1-0.6,1.6v29.8c0,1.3,1.1,2.3,2.3,2.2c0.6,0,1.1-0.2,1.5-0.6c0.4-0.4,0.6-1,0.6-1.6V24.6c0-1,0.3-2,0.9-2.9
		c0.6-0.9,1.4-1.5,2.4-2c1-0.5,2.2-0.8,3.3-0.7c1.2,0,2.5,0.2,3.6,0.8c1,0.5,1.9,1.3,2.5,2.3c0.7,1.3,1,2.7,0.9,4.1v10.8
		c0,1.2,1,2.2,2.3,2.2C124,39.1,124.5,38.9,125,38.5L125,38.5z"/>
	<path class="st2" d="M137.8,37.7c3.3,1.7,7.2,2,10.7,0.8c1.3-0.4,2.6-1.1,3.7-1.9c0.5-0.3,0.7-0.8,0.7-1.4
		c-0.1-0.6-0.3-1.1-0.8-1.4c-0.4-0.3-0.8-0.5-1.3-0.5c-0.5,0-1,0.2-1.4,0.5c-0.7,0.5-1.5,0.9-2.3,1.2c-0.9,0.3-1.8,0.5-2.8,0.5
		c-1.5,0-3.1-0.3-4.4-1.1c-2.1-1.2-3.6-3.3-4-5.7h16.6c0.5,0,1.1-0.2,1.4-0.5c0.4-0.4,0.6-0.9,0.6-1.4c0-2.1-0.4-4.2-1.3-6.1
		c-0.8-1.7-2.1-3.2-3.7-4.2c-1.8-1-3.8-1.6-5.9-1.5c-2.1,0-4.3,0.5-6.1,1.6c-1.8,1-3.2,2.5-4.2,4.3c-1,1.9-1.6,4.1-1.5,6.3
		c0,2.2,0.5,4.4,1.6,6.3C134.5,35.2,136,36.7,137.8,37.7z M139.4,19.8c1.3-0.8,2.8-1.1,4.3-1.1c2.6-0.1,5,1.4,6.1,3.7
		c0.4,0.9,0.7,1.8,0.8,2.7h-14.6c0.1-0.8,0.4-1.6,0.7-2.3C137.3,21.6,138.2,20.5,139.4,19.8z"/>
	<g>
		<path class="st2" d="M330.2,138.3c1.5-1.5,1.6-3.9,0.1-5.5c-0.8-0.8-1.8-1.2-2.9-1.2h-43.2c-2.1,0-3.9,1.6-4,3.8
			c0,2.1,1.6,3.9,3.8,4c0.1,0,0.1,0,0.2,0h17.4v51.1c-0.1,2.3,1.8,4.2,4.1,4.3c2.3,0.1,4.2-1.8,4.3-4.1c0-0.1,0-0.1,0-0.2v-51.1
			h17.4C328.5,139.4,329.5,139,330.2,138.3z"/>
		<path class="st2" d="M357.3,151.6c-2.2-1.2-4.7-1.7-7.2-1.6c-3.1,0-6.2,0.7-8.9,2.3c-1.8,1-3.4,2.3-4.7,3.8v-1.5
			c0.3-2-1.1-3.8-3-4c-0.3,0-0.7,0-1,0c-2-0.2-3.8,1.2-4,3.2c0,0.3,0,0.5,0,0.8v36.1c-0.1,1.1,0.3,2.2,1.1,3c0.8,0.7,1.9,1.1,3,1
			c1.1,0.1,2.2-0.3,3-1.1c0.7-0.8,1.1-1.9,1-3v-23.6c-0.1-2.3,0.8-4.5,2.4-6.1c1.8-1.7,4.1-2.9,6.5-3.3c3.1-0.6,6.2-0.5,9.3,0.2
			c0.6,0.2,1.3,0.2,1.9,0.1c0.6-0.1,1.1-0.4,1.6-0.8c0.5-0.5,0.8-1.1,0.9-1.7C359.5,153.8,358.7,152.3,357.3,151.6z"/>
		<path class="st2" d="M404.1,150.4c-1.1,0-2.2,0.4-2.9,1.1c-0.8,0.8-1.2,1.9-1.2,3v22.8c0,1.9-0.5,3.7-1.6,5.3
			c-1.1,1.6-2.6,2.9-4.3,3.7c-1.9,0.9-4,1.4-6.2,1.4c-2.3,0-4.5-0.4-6.5-1.4c-1.9-0.9-3.6-2.5-4.6-4.4c-1.2-2.3-1.8-4.9-1.7-7.5
			v-19.9c0-2.3-1.8-4.2-4-4.2c-2.3,0-4.2,1.8-4.2,4c0,0,0,0.1,0,0.1v19.9c-0.1,3.9,0.7,7.8,2.5,11.3c1.6,3,4,5.4,6.9,7
			c3.1,1.6,6.5,2.4,10,2.4c3.4,0.1,6.7-0.7,9.6-2.3c1.5-0.8,2.9-1.9,4.1-3.1v0.9c0,2.3,2,4.2,4.3,4.1c1.1,0,2.1-0.4,2.8-1.2
			c0.8-0.8,1.2-1.9,1.1-2.9v-36c0.1-2.1-1.5-4-3.6-4.1C404.5,150.4,404.3,150.4,404.1,150.4L404.1,150.4z"/>
		<path class="st2" d="M447.6,171.8c-3-1.5-6.3-2.5-9.6-3.1c-2.3-0.4-4.5-1-6.6-1.8c-1.2-0.4-2.2-1.1-3-2.1
			c-0.5-0.8-0.8-1.7-0.8-2.6c0-1.6,1-3,2.5-3.6c1.9-0.9,3.9-1.3,6-1.2c1.8,0,3.7,0.2,5.4,0.7c1.6,0.5,3.1,1.4,4.4,2.7
			c0.8,0.8,1.9,1.3,3,1.5c1.1,0.2,2.2,0,3.1-0.6c0.8-0.5,1.3-1.4,1.4-2.4c0-1-0.3-2-1.1-2.7c-1.7-2.1-4-3.7-6.5-4.7
			c-3-1.2-6.2-1.8-9.4-1.7c-2.7,0-5.4,0.4-7.9,1.3c-2.4,0.8-4.5,2.2-6.2,4c-1.6,1.9-2.5,4.3-2.4,6.8c0,3.1,1.3,6,3.7,7.9
			c3.5,2.6,7.5,4.3,11.8,4.8c3.1,0.4,6,1.3,8.7,2.9c1.4,0.9,2.3,2.5,2.3,4.2c-0.1,1.7-1.1,3.2-2.5,4c-2.2,1.2-4.7,1.7-7.1,1.5
			c-2.3,0-4.6-0.4-6.7-1.3c-1.6-0.6-3.1-1.6-4.4-2.9c-0.7-0.8-1.7-1.3-2.7-1.4c-1.2-0.1-2.3,0.3-3.2,1.1c-0.9,0.6-1.5,1.6-1.6,2.7
			c-0.1,1.1,0.2,2.2,1,2.9c2.1,2,4.7,3.5,7.5,4.4c3.4,1.2,6.9,1.8,10.5,1.7c3.3,0.1,6.5-0.5,9.6-1.8c2.3-1,4.4-2.7,5.8-4.8
			c1.3-2,2-4.3,2-6.7c0-2-0.5-4-1.5-5.7C451.4,174.2,449.7,172.7,447.6,171.8z"/>
		<path class="st2" d="M485.9,187.7c-0.6-0.7-1.5-1.1-2.5-1.1h-2.7c-1.7,0-3.3-0.8-4.4-2.2c-1.2-1.5-1.8-3.5-1.8-5.4v-19.9h6.9
			c1,0,2-0.3,2.7-1c0.7-0.6,1.1-1.5,1.1-2.4c0-1-0.3-1.9-1.1-2.6c-0.8-0.7-1.7-1-2.7-1h-6.9v-11.6c0.1-2.2-1.7-4.1-3.9-4.1
			c-2.2-0.1-4.1,1.7-4.1,3.9c0,0.1,0,0.1,0,0.2v11.6h-3.7c-1,0-2,0.3-2.7,1c-0.7,0.7-1.1,1.6-1.1,2.6c0,0.9,0.4,1.8,1.1,2.4
			c0.8,0.7,1.7,1,2.7,1h3.7V179c0,2.8,0.6,5.5,1.9,8c1.2,2.3,2.9,4.2,5.1,5.6c2.2,1.4,4.7,2.1,7.3,2.1h1.5c1.2,0.1,2.5-0.3,3.4-1.1
			c0.9-0.7,1.4-1.8,1.3-2.9C487,189.6,486.6,188.6,485.9,187.7z"/>
	</g>
</g>
</svg>
